<svg preserveAspectRatio="none" overflow="visible" style="display: block;" width="14" height="14" viewBox="0 0 14 14" fill="none" xmlns="http://www.w3.org/2000/svg">
<path id="Vector" d="M7 1C7.05937 1 7.09468 1.01768 7.10059 1.02148C8.71797 2.15008 11.0245 3.0584 13 3.0957V7.69922C12.9999 9.10476 12.4049 10.1473 11.3789 10.9893C10.3173 11.8605 8.80038 12.5056 7.03613 12.998C7.02447 13.0012 7.00687 13.0008 6.99707 12.998L6.97754 12.9922L6.3252 12.8008C4.83307 12.338 3.55171 11.7506 2.62109 10.9883C1.59462 10.1474 1.00005 9.10473 1 7.69922V3.0957C2.97656 3.05812 5.29138 2.1427 6.89941 1.02148C6.90532 1.01768 6.94063 1 7 1Z" stroke="#CCFF00" stroke-width="2"/>
</svg>
